<mxfile host="app.diagrams.net" modified="2024-01-07T20:36:27.154Z" agent="Mozilla/5.0 (Windows NT 10.0; Win64; x64; rv:121.0) Gecko/20100101 Firefox/121.0" etag="XUTPi2OY7-aoQCwqVZgr" version="22.1.17" type="device">
  <diagram name="Page-1" id="RTFqESsKygMao98RrtFS">
    <mxGraphModel dx="1400" dy="1844" grid="1" gridSize="10" guides="1" tooltips="1" connect="1" arrows="1" fold="1" page="1" pageScale="1" pageWidth="850" pageHeight="1100" math="0" shadow="0">
      <root>
        <mxCell id="0" />
        <mxCell id="1" parent="0" />
        <mxCell id="rdav3QA0Nxtn24R4cI6s-31" style="edgeStyle=orthogonalEdgeStyle;rounded=0;orthogonalLoop=1;jettySize=auto;html=1;entryX=0.5;entryY=0;entryDx=0;entryDy=0;" edge="1" parent="1" source="rdav3QA0Nxtn24R4cI6s-1" target="rdav3QA0Nxtn24R4cI6s-5">
          <mxGeometry relative="1" as="geometry">
            <mxPoint x="120" y="110" as="targetPoint" />
          </mxGeometry>
        </mxCell>
        <mxCell id="rdav3QA0Nxtn24R4cI6s-33" style="edgeStyle=orthogonalEdgeStyle;rounded=0;orthogonalLoop=1;jettySize=auto;html=1;entryX=0.5;entryY=0;entryDx=0;entryDy=0;" edge="1" parent="1" source="rdav3QA0Nxtn24R4cI6s-1" target="rdav3QA0Nxtn24R4cI6s-2">
          <mxGeometry relative="1" as="geometry" />
        </mxCell>
        <mxCell id="rdav3QA0Nxtn24R4cI6s-34" style="edgeStyle=orthogonalEdgeStyle;rounded=0;orthogonalLoop=1;jettySize=auto;html=1;entryX=0.5;entryY=0;entryDx=0;entryDy=0;" edge="1" parent="1" source="rdav3QA0Nxtn24R4cI6s-1" target="rdav3QA0Nxtn24R4cI6s-8">
          <mxGeometry relative="1" as="geometry" />
        </mxCell>
        <mxCell id="rdav3QA0Nxtn24R4cI6s-35" style="edgeStyle=orthogonalEdgeStyle;rounded=0;orthogonalLoop=1;jettySize=auto;html=1;entryX=0.5;entryY=0;entryDx=0;entryDy=0;" edge="1" parent="1" source="rdav3QA0Nxtn24R4cI6s-1" target="rdav3QA0Nxtn24R4cI6s-6">
          <mxGeometry relative="1" as="geometry" />
        </mxCell>
        <mxCell id="rdav3QA0Nxtn24R4cI6s-1" value="&lt;b style=&quot;font-size: 20px;&quot;&gt;Main Menu&lt;br&gt;&lt;/b&gt;" style="text;html=1;strokeColor=#A50040;fillColor=#d80073;align=center;verticalAlign=middle;whiteSpace=wrap;rounded=0;fontColor=#ffffff;" vertex="1" parent="1">
          <mxGeometry x="352.5" width="160" height="80" as="geometry" />
        </mxCell>
        <mxCell id="rdav3QA0Nxtn24R4cI6s-2" value="&lt;font face=&quot;Times New Roman&quot; style=&quot;font-size: 14px;&quot;&gt;Αίθουσα Εκθεσιακού Χώρου&lt;/font&gt;" style="text;html=1;strokeColor=none;fillColor=none;align=center;verticalAlign=middle;whiteSpace=wrap;rounded=0;" vertex="1" parent="1">
          <mxGeometry x="247.5" y="120" width="155" height="40" as="geometry" />
        </mxCell>
        <mxCell id="rdav3QA0Nxtn24R4cI6s-5" value="&lt;font style=&quot;font-size: 14px;&quot; face=&quot;Times New Roman&quot;&gt;Αίθουσα Συναυλιών&lt;/font&gt;" style="text;html=1;strokeColor=none;fillColor=none;align=center;verticalAlign=middle;whiteSpace=wrap;rounded=0;" vertex="1" parent="1">
          <mxGeometry x="40" y="120" width="160" height="40" as="geometry" />
        </mxCell>
        <mxCell id="rdav3QA0Nxtn24R4cI6s-6" value="&lt;font style=&quot;font-size: 14px;&quot; face=&quot;Times New Roman&quot;&gt;Προσομοίωση ηλεκτρονικής διαχείρισης του ψηφιακού DJ&lt;/font&gt;" style="text;html=1;strokeColor=none;fillColor=none;align=center;verticalAlign=middle;whiteSpace=wrap;rounded=0;" vertex="1" parent="1">
          <mxGeometry x="665" y="120" width="170" height="40" as="geometry" />
        </mxCell>
        <mxCell id="rdav3QA0Nxtn24R4cI6s-7" value="&lt;font style=&quot;font-size: 18px;&quot;&gt;&lt;b&gt;Exhibition Hall&lt;br&gt;&lt;/b&gt;&lt;/font&gt;" style="text;html=1;strokeColor=#2D7600;fillColor=#60a917;align=center;verticalAlign=middle;whiteSpace=wrap;rounded=0;fontColor=#ffffff;" vertex="1" parent="1">
          <mxGeometry x="245" y="160" width="160" height="80" as="geometry" />
        </mxCell>
        <mxCell id="rdav3QA0Nxtn24R4cI6s-8" value="&lt;font face=&quot;Times New Roman&quot; style=&quot;font-size: 14px;&quot;&gt;Αίθουσες Προβολής Βιντεοσκοπιμένων Εκδηλώσεων&lt;/font&gt;" style="text;html=1;strokeColor=none;fillColor=none;align=center;verticalAlign=middle;whiteSpace=wrap;rounded=0;" vertex="1" parent="1">
          <mxGeometry x="437.5" y="120" width="190" height="40" as="geometry" />
        </mxCell>
        <mxCell id="rdav3QA0Nxtn24R4cI6s-24" style="edgeStyle=orthogonalEdgeStyle;rounded=0;orthogonalLoop=1;jettySize=auto;html=1;entryX=0.5;entryY=0;entryDx=0;entryDy=0;" edge="1" parent="1" source="rdav3QA0Nxtn24R4cI6s-9" target="rdav3QA0Nxtn24R4cI6s-10">
          <mxGeometry relative="1" as="geometry" />
        </mxCell>
        <mxCell id="rdav3QA0Nxtn24R4cI6s-9" value="&lt;font style=&quot;font-size: 18px;&quot;&gt;&lt;b&gt;Upcoming Concerts&lt;br&gt;&lt;/b&gt;&lt;/font&gt;" style="text;html=1;strokeColor=#432D57;fillColor=#76608a;align=center;verticalAlign=middle;whiteSpace=wrap;rounded=0;fontColor=#ffffff;" vertex="1" parent="1">
          <mxGeometry x="40" y="160" width="160" height="80" as="geometry" />
        </mxCell>
        <mxCell id="rdav3QA0Nxtn24R4cI6s-25" style="edgeStyle=orthogonalEdgeStyle;rounded=0;orthogonalLoop=1;jettySize=auto;html=1;entryX=0.5;entryY=0;entryDx=0;entryDy=0;" edge="1" parent="1" source="rdav3QA0Nxtn24R4cI6s-10" target="rdav3QA0Nxtn24R4cI6s-11">
          <mxGeometry relative="1" as="geometry" />
        </mxCell>
        <mxCell id="rdav3QA0Nxtn24R4cI6s-10" value="&lt;font style=&quot;font-size: 18px;&quot;&gt;&lt;b&gt;Concert Tickets&lt;br&gt;&lt;/b&gt;&lt;/font&gt;" style="text;html=1;strokeColor=#432D57;fillColor=#76608a;align=center;verticalAlign=middle;whiteSpace=wrap;rounded=0;fontColor=#ffffff;" vertex="1" parent="1">
          <mxGeometry x="40" y="280" width="160" height="80" as="geometry" />
        </mxCell>
        <mxCell id="rdav3QA0Nxtn24R4cI6s-11" value="&lt;font size=&quot;1&quot;&gt;&lt;b style=&quot;font-size: 18px;&quot;&gt;E-Pay&lt;/b&gt;&lt;/font&gt;" style="text;html=1;strokeColor=#432D57;fillColor=#76608a;align=center;verticalAlign=middle;whiteSpace=wrap;rounded=0;fontColor=#ffffff;" vertex="1" parent="1">
          <mxGeometry x="40" y="400" width="160" height="80" as="geometry" />
        </mxCell>
        <mxCell id="rdav3QA0Nxtn24R4cI6s-26" style="edgeStyle=orthogonalEdgeStyle;rounded=0;orthogonalLoop=1;jettySize=auto;html=1;entryX=0.5;entryY=0;entryDx=0;entryDy=0;" edge="1" parent="1" source="rdav3QA0Nxtn24R4cI6s-13" target="rdav3QA0Nxtn24R4cI6s-14">
          <mxGeometry relative="1" as="geometry" />
        </mxCell>
        <mxCell id="rdav3QA0Nxtn24R4cI6s-27" style="edgeStyle=orthogonalEdgeStyle;rounded=0;orthogonalLoop=1;jettySize=auto;html=1;entryX=0.5;entryY=0;entryDx=0;entryDy=0;" edge="1" parent="1" source="rdav3QA0Nxtn24R4cI6s-13" target="rdav3QA0Nxtn24R4cI6s-15">
          <mxGeometry relative="1" as="geometry" />
        </mxCell>
        <mxCell id="rdav3QA0Nxtn24R4cI6s-13" value="&lt;font style=&quot;font-size: 18px;&quot;&gt;&lt;b&gt;Viewing Room&lt;br&gt;&lt;/b&gt;&lt;/font&gt;" style="text;html=1;strokeColor=#B20000;fillColor=#e51400;align=center;verticalAlign=middle;whiteSpace=wrap;rounded=0;fontColor=#ffffff;" vertex="1" parent="1">
          <mxGeometry x="452.5" y="160" width="160" height="80" as="geometry" />
        </mxCell>
        <mxCell id="rdav3QA0Nxtn24R4cI6s-28" style="edgeStyle=orthogonalEdgeStyle;rounded=0;orthogonalLoop=1;jettySize=auto;html=1;exitX=0.5;exitY=1;exitDx=0;exitDy=0;entryX=0.5;entryY=0;entryDx=0;entryDy=0;" edge="1" parent="1" source="rdav3QA0Nxtn24R4cI6s-14" target="rdav3QA0Nxtn24R4cI6s-17">
          <mxGeometry relative="1" as="geometry" />
        </mxCell>
        <mxCell id="rdav3QA0Nxtn24R4cI6s-14" value="&lt;font style=&quot;font-size: 18px;&quot;&gt;&lt;b&gt;Personal Artist Hall&lt;br&gt;&lt;/b&gt;&lt;/font&gt;" style="text;html=1;strokeColor=#B20000;fillColor=#e51400;align=center;verticalAlign=middle;whiteSpace=wrap;rounded=0;fontColor=#ffffff;" vertex="1" parent="1">
          <mxGeometry x="352.5" y="280" width="160" height="80" as="geometry" />
        </mxCell>
        <mxCell id="rdav3QA0Nxtn24R4cI6s-29" style="edgeStyle=orthogonalEdgeStyle;rounded=0;orthogonalLoop=1;jettySize=auto;html=1;entryX=0.5;entryY=0;entryDx=0;entryDy=0;" edge="1" parent="1" source="rdav3QA0Nxtn24R4cI6s-15" target="rdav3QA0Nxtn24R4cI6s-16">
          <mxGeometry relative="1" as="geometry" />
        </mxCell>
        <mxCell id="rdav3QA0Nxtn24R4cI6s-15" value="&lt;font style=&quot;font-size: 18px;&quot;&gt;&lt;b&gt;Food / Drink Order&lt;br&gt;&lt;/b&gt;&lt;/font&gt;" style="text;html=1;strokeColor=#B20000;fillColor=#e51400;align=center;verticalAlign=middle;whiteSpace=wrap;rounded=0;fontColor=#ffffff;" vertex="1" parent="1">
          <mxGeometry x="552.5" y="280" width="160" height="80" as="geometry" />
        </mxCell>
        <mxCell id="rdav3QA0Nxtn24R4cI6s-16" value="&lt;font size=&quot;1&quot;&gt;&lt;b style=&quot;font-size: 18px;&quot;&gt;E-Pay&lt;/b&gt;&lt;/font&gt;" style="text;html=1;strokeColor=#B20000;fillColor=#e51400;align=center;verticalAlign=middle;whiteSpace=wrap;rounded=0;fontColor=#ffffff;" vertex="1" parent="1">
          <mxGeometry x="552.5" y="400" width="160" height="80" as="geometry" />
        </mxCell>
        <mxCell id="rdav3QA0Nxtn24R4cI6s-17" value="&lt;font style=&quot;font-size: 18px;&quot;&gt;&lt;b&gt;Video Player&lt;br&gt;&lt;/b&gt;&lt;/font&gt;" style="text;html=1;strokeColor=#B20000;fillColor=#e51400;align=center;verticalAlign=middle;whiteSpace=wrap;rounded=0;fontColor=#ffffff;" vertex="1" parent="1">
          <mxGeometry x="352.5" y="400" width="160" height="80" as="geometry" />
        </mxCell>
        <mxCell id="rdav3QA0Nxtn24R4cI6s-23" value="&lt;font size=&quot;1&quot;&gt;&lt;b style=&quot;font-size: 18px;&quot;&gt;DJ&lt;/b&gt;&lt;/font&gt;" style="text;html=1;strokeColor=#3700CC;fillColor=#6a00ff;align=center;verticalAlign=middle;whiteSpace=wrap;rounded=0;fontColor=#ffffff;" vertex="1" parent="1">
          <mxGeometry x="670" y="160" width="160" height="80" as="geometry" />
        </mxCell>
        <mxCell id="rdav3QA0Nxtn24R4cI6s-30" value="&lt;h1 style=&quot;font-size: 36px;&quot;&gt;&lt;font style=&quot;font-size: 36px;&quot;&gt;&quot;Ροή&quot; της εφαρμογής &lt;/font&gt;&lt;/h1&gt;&lt;div align=&quot;left&quot; style=&quot;font-size: 14px;&quot;&gt;*Τα βελάκια κανονικά πάνε και ανάποδα για να μπορεί ο χρήστης να πλοηγηθεί σε όλα χωρίς να κολλήσει κάπου&lt;br&gt;&lt;/div&gt;" style="text;html=1;strokeColor=none;fillColor=none;align=center;verticalAlign=middle;whiteSpace=wrap;rounded=0;" vertex="1" parent="1">
          <mxGeometry x="40" y="-150" width="770" height="110" as="geometry" />
        </mxCell>
      </root>
    </mxGraphModel>
  </diagram>
</mxfile>
